<mxfile host="app.diagrams.net" modified="2021-02-14T09:53:50.601Z" agent="5.0 (Macintosh; Intel Mac OS X 10_14_6) AppleWebKit/537.36 (KHTML, like Gecko) Chrome/88.0.4324.96 Safari/537.36" etag="ah_UvApQPSGbwHZ4HvOa" version="14.3.1" type="github">
  <diagram id="C5RBs43oDa-KdzZeNtuy" name="Page-1">
    <mxGraphModel dx="1186" dy="764" grid="1" gridSize="10" guides="1" tooltips="1" connect="1" arrows="1" fold="1" page="1" pageScale="1" pageWidth="827" pageHeight="1169" math="0" shadow="0">
      <root>
        <mxCell id="WIyWlLk6GJQsqaUBKTNV-0" />
        <mxCell id="WIyWlLk6GJQsqaUBKTNV-1" parent="WIyWlLk6GJQsqaUBKTNV-0" />
        <mxCell id="lqkFV1ZPry2E3nPWpPAE-2" style="edgeStyle=orthogonalEdgeStyle;rounded=0;orthogonalLoop=1;jettySize=auto;html=1;" edge="1" parent="WIyWlLk6GJQsqaUBKTNV-1" source="lqkFV1ZPry2E3nPWpPAE-1">
          <mxGeometry relative="1" as="geometry">
            <mxPoint x="309.25" y="210" as="targetPoint" />
          </mxGeometry>
        </mxCell>
        <mxCell id="lqkFV1ZPry2E3nPWpPAE-1" value="start" style="ellipse;whiteSpace=wrap;html=1;fillColor=#dae8fc;strokeColor=#6c8ebf;" vertex="1" parent="WIyWlLk6GJQsqaUBKTNV-1">
          <mxGeometry x="249.25" y="90" width="120" height="80" as="geometry" />
        </mxCell>
        <mxCell id="lqkFV1ZPry2E3nPWpPAE-8" style="edgeStyle=orthogonalEdgeStyle;rounded=0;orthogonalLoop=1;jettySize=auto;html=1;entryX=0.5;entryY=0;entryDx=0;entryDy=0;" edge="1" parent="WIyWlLk6GJQsqaUBKTNV-1" source="lqkFV1ZPry2E3nPWpPAE-3" target="lqkFV1ZPry2E3nPWpPAE-4">
          <mxGeometry relative="1" as="geometry" />
        </mxCell>
        <mxCell id="lqkFV1ZPry2E3nPWpPAE-3" value="Read Year" style="shape=parallelogram;perimeter=parallelogramPerimeter;whiteSpace=wrap;html=1;fixedSize=1;fillColor=#fff2cc;strokeColor=#d6b656;" vertex="1" parent="WIyWlLk6GJQsqaUBKTNV-1">
          <mxGeometry x="249.25" y="210" width="120" height="60" as="geometry" />
        </mxCell>
        <mxCell id="lqkFV1ZPry2E3nPWpPAE-12" style="edgeStyle=orthogonalEdgeStyle;rounded=0;orthogonalLoop=1;jettySize=auto;html=1;entryX=0.375;entryY=0.017;entryDx=0;entryDy=0;entryPerimeter=0;" edge="1" parent="WIyWlLk6GJQsqaUBKTNV-1" source="lqkFV1ZPry2E3nPWpPAE-4">
          <mxGeometry relative="1" as="geometry">
            <mxPoint x="148" y="501.02" as="targetPoint" />
            <Array as="points">
              <mxPoint x="149.25" y="405" />
              <mxPoint x="149.25" y="451" />
              <mxPoint x="148.25" y="451" />
            </Array>
          </mxGeometry>
        </mxCell>
        <mxCell id="lqkFV1ZPry2E3nPWpPAE-25" value="No" style="edgeLabel;html=1;align=center;verticalAlign=middle;resizable=0;points=[];" vertex="1" connectable="0" parent="lqkFV1ZPry2E3nPWpPAE-12">
          <mxGeometry x="-0.4758" y="-1" relative="1" as="geometry">
            <mxPoint as="offset" />
          </mxGeometry>
        </mxCell>
        <mxCell id="lqkFV1ZPry2E3nPWpPAE-15" style="edgeStyle=orthogonalEdgeStyle;rounded=0;orthogonalLoop=1;jettySize=auto;html=1;" edge="1" parent="WIyWlLk6GJQsqaUBKTNV-1" source="lqkFV1ZPry2E3nPWpPAE-4">
          <mxGeometry relative="1" as="geometry">
            <mxPoint x="479.25" y="490" as="targetPoint" />
          </mxGeometry>
        </mxCell>
        <mxCell id="lqkFV1ZPry2E3nPWpPAE-26" value="Yes" style="edgeLabel;html=1;align=center;verticalAlign=middle;resizable=0;points=[];" vertex="1" connectable="0" parent="lqkFV1ZPry2E3nPWpPAE-15">
          <mxGeometry x="-0.57" y="4" relative="1" as="geometry">
            <mxPoint as="offset" />
          </mxGeometry>
        </mxCell>
        <mxCell id="lqkFV1ZPry2E3nPWpPAE-4" value="Year&lt;br&gt;Clearly divisible by 4" style="rhombus;whiteSpace=wrap;html=1;fillColor=#f8cecc;strokeColor=#b85450;" vertex="1" parent="WIyWlLk6GJQsqaUBKTNV-1">
          <mxGeometry x="254.25" y="340" width="110" height="130" as="geometry" />
        </mxCell>
        <mxCell id="lqkFV1ZPry2E3nPWpPAE-9" value="Not a Leap Year" style="shape=parallelogram;perimeter=parallelogramPerimeter;whiteSpace=wrap;html=1;fixedSize=1;fillColor=#e1d5e7;strokeColor=#9673a6;" vertex="1" parent="WIyWlLk6GJQsqaUBKTNV-1">
          <mxGeometry x="60" y="500" width="130" height="60" as="geometry" />
        </mxCell>
        <mxCell id="lqkFV1ZPry2E3nPWpPAE-17" style="edgeStyle=orthogonalEdgeStyle;rounded=0;orthogonalLoop=1;jettySize=auto;html=1;" edge="1" parent="WIyWlLk6GJQsqaUBKTNV-1">
          <mxGeometry relative="1" as="geometry">
            <mxPoint x="314.25" y="640" as="targetPoint" />
            <mxPoint x="444.25" y="560" as="sourcePoint" />
          </mxGeometry>
        </mxCell>
        <mxCell id="lqkFV1ZPry2E3nPWpPAE-23" value="No" style="edgeLabel;html=1;align=center;verticalAlign=middle;resizable=0;points=[];" vertex="1" connectable="0" parent="lqkFV1ZPry2E3nPWpPAE-17">
          <mxGeometry x="-0.3429" y="-2" relative="1" as="geometry">
            <mxPoint as="offset" />
          </mxGeometry>
        </mxCell>
        <mxCell id="lqkFV1ZPry2E3nPWpPAE-18" style="edgeStyle=orthogonalEdgeStyle;rounded=0;orthogonalLoop=1;jettySize=auto;html=1;entryX=0.5;entryY=0;entryDx=0;entryDy=0;" edge="1" parent="WIyWlLk6GJQsqaUBKTNV-1" source="lqkFV1ZPry2E3nPWpPAE-16" target="lqkFV1ZPry2E3nPWpPAE-20">
          <mxGeometry relative="1" as="geometry">
            <mxPoint x="679.25" y="640" as="targetPoint" />
          </mxGeometry>
        </mxCell>
        <mxCell id="lqkFV1ZPry2E3nPWpPAE-24" value="Yes" style="edgeLabel;html=1;align=center;verticalAlign=middle;resizable=0;points=[];" vertex="1" connectable="0" parent="lqkFV1ZPry2E3nPWpPAE-18">
          <mxGeometry x="-0.3667" y="-2" relative="1" as="geometry">
            <mxPoint as="offset" />
          </mxGeometry>
        </mxCell>
        <mxCell id="lqkFV1ZPry2E3nPWpPAE-16" value="Year divisible &lt;br&gt;by 100" style="rhombus;whiteSpace=wrap;html=1;fillColor=#f8cecc;strokeColor=#b85450;" vertex="1" parent="WIyWlLk6GJQsqaUBKTNV-1">
          <mxGeometry x="419.25" y="490" width="120" height="140" as="geometry" />
        </mxCell>
        <mxCell id="lqkFV1ZPry2E3nPWpPAE-19" value="Leap Year" style="shape=parallelogram;perimeter=parallelogramPerimeter;whiteSpace=wrap;html=1;fixedSize=1;fillColor=#e1d5e7;strokeColor=#9673a6;" vertex="1" parent="WIyWlLk6GJQsqaUBKTNV-1">
          <mxGeometry x="249.25" y="640" width="140" height="60" as="geometry" />
        </mxCell>
        <mxCell id="lqkFV1ZPry2E3nPWpPAE-31" style="edgeStyle=orthogonalEdgeStyle;rounded=0;orthogonalLoop=1;jettySize=auto;html=1;entryX=0.558;entryY=0.017;entryDx=0;entryDy=0;entryPerimeter=0;" edge="1" parent="WIyWlLk6GJQsqaUBKTNV-1" source="lqkFV1ZPry2E3nPWpPAE-20" target="lqkFV1ZPry2E3nPWpPAE-28">
          <mxGeometry relative="1" as="geometry" />
        </mxCell>
        <mxCell id="lqkFV1ZPry2E3nPWpPAE-34" style="edgeStyle=orthogonalEdgeStyle;rounded=0;orthogonalLoop=1;jettySize=auto;html=1;" edge="1" parent="WIyWlLk6GJQsqaUBKTNV-1" source="lqkFV1ZPry2E3nPWpPAE-20">
          <mxGeometry relative="1" as="geometry">
            <mxPoint x="730" y="820" as="targetPoint" />
          </mxGeometry>
        </mxCell>
        <mxCell id="lqkFV1ZPry2E3nPWpPAE-20" value="Year divisible &lt;br&gt;by 400" style="rhombus;whiteSpace=wrap;html=1;fillColor=#f8cecc;strokeColor=#b85450;" vertex="1" parent="WIyWlLk6GJQsqaUBKTNV-1">
          <mxGeometry x="559.25" y="600" width="120" height="140" as="geometry" />
        </mxCell>
        <mxCell id="lqkFV1ZPry2E3nPWpPAE-28" value="Not a Leap Year" style="shape=parallelogram;perimeter=parallelogramPerimeter;whiteSpace=wrap;html=1;fixedSize=1;fillColor=#e1d5e7;strokeColor=#9673a6;" vertex="1" parent="WIyWlLk6GJQsqaUBKTNV-1">
          <mxGeometry x="390" y="740" width="120" height="60" as="geometry" />
        </mxCell>
        <mxCell id="lqkFV1ZPry2E3nPWpPAE-33" value="Leap Year" style="shape=parallelogram;perimeter=parallelogramPerimeter;whiteSpace=wrap;html=1;fixedSize=1;fillColor=#e1d5e7;strokeColor=#9673a6;" vertex="1" parent="WIyWlLk6GJQsqaUBKTNV-1">
          <mxGeometry x="670" y="820" width="120" height="60" as="geometry" />
        </mxCell>
      </root>
    </mxGraphModel>
  </diagram>
</mxfile>
